<?xml version="1.0" standalone="no"?>
<!DOCTYPE svg PUBLIC "-//W3C//DTD SVG 20010904//EN"
 "http://www.w3.org/TR/2001/REC-SVG-20010904/DTD/svg10.dtd">
<svg version="1.0" xmlns="http://www.w3.org/2000/svg"
 width="64.000000pt" height="64.000000pt" viewBox="0 0 64.000000 64.000000"
 preserveAspectRatio="xMidYMid meet">

<g transform="translate(0.000000,64.000000) scale(0.100000,-0.100000)"
fill="#000000" stroke="none">
<path d="M261 599 c-25 -5 -49 -14 -55 -20 -8 -9 -5 -10 12 -6 30 7 30 -28 0
-60 -12 -13 -17 -23 -10 -23 17 0 52 51 52 76 0 22 4 24 53 24 90 0 97 -5 90
-56 -5 -38 -2 -49 17 -69 13 -14 29 -25 36 -25 7 0 -1 13 -17 29 -29 30 -36
55 -20 80 7 10 20 4 62 -29 30 -24 53 -49 51 -57 -2 -8 1 -12 6 -9 14 8 28
-13 41 -59 10 -36 9 -41 -9 -54 -11 -7 -20 -18 -20 -23 0 -6 7 -5 15 2 13 11
14 6 9 -36 -8 -57 -12 -64 -24 -44 -8 13 -10 13 -10 0 0 -9 5 -21 11 -27 17
-17 -18 -71 -73 -113 -54 -40 -56 -53 -3 -20 46 28 105 106 105 138 0 13 5 53
11 87 10 52 9 69 -5 113 -14 42 -29 60 -83 104 -36 29 -75 58 -87 64 -31 17
-105 23 -155 13z"/>
<path d="M110 513 c-52 -59 -70 -108 -70 -193 0 -112 44 -192 134 -245 67 -39
117 -46 184 -25 31 10 47 19 35 19 -12 1 -33 -3 -47 -9 -20 -7 -26 -6 -26 4 0
19 24 37 63 47 32 8 31 8 -8 6 -33 -2 -43 -7 -60 -35 -18 -29 -24 -32 -55 -26
-70 11 -148 72 -185 144 -8 16 -17 64 -20 107 -5 74 -4 83 23 134 25 47 32 54
56 52 23 -2 26 0 16 13 -10 11 -10 17 0 29 27 33 -10 13 -40 -22z"/>
<path d="M175 415 c-18 -18 -25 -35 -25 -65 0 -22 4 -40 9 -40 6 0 7 15 4 34
-4 28 -1 39 20 60 33 33 71 33 104 0 25 -25 27 -50 8 -99 -7 -19 -7 -19 10 -4
25 24 22 85 -6 115 -31 33 -91 33 -124 -1z"/>
<path d="M396 284 c-22 -21 -20 -41 4 -54 14 -7 20 -7 20 0 0 5 -4 10 -10 10
-5 0 -10 9 -10 20 0 27 28 25 40 -2 l9 -23 0 22 c1 31 -33 48 -53 27z"/>
<path d="M200 276 c0 -9 40 -13 46 -5 3 5 -6 9 -20 9 -14 0 -26 -2 -26 -4z"/>
<path d="M146 202 c-10 -17 18 -60 50 -74 20 -9 28 -8 41 5 15 15 15 18 -1 42
-10 15 -20 24 -24 21 -3 -4 0 -12 6 -18 18 -18 14 -38 -6 -38 -22 0 -48 27
-54 55 -2 15 -6 17 -12 7z"/>
</g>
</svg>
